<svg xmlns="http://www.w3.org/2000/svg" viewBox="0 0 1000 750"><defs><clipPath id="e"><path d="M0 780.661h612V0H0v780.661z"/></clipPath><clipPath id="f"><path d="M0 780.661h612V0H0v780.661z"/></clipPath><clipPath id="a"><path d="M94.121 618.24H516.74V326.156H94.121V618.24z"/></clipPath><clipPath id="b"><path d="M93.121 619.24H517.74V325.16H93.121v294.08z"/></clipPath><clipPath id="c"><path d="M94.121 618.24H516.74V326.156H94.121V618.24z"/></clipPath><clipPath id="d"><path d="M94.121 326.16H516.74v292.08H94.121V326.16z"/></clipPath><clipPath id="h"><path d="M96.462 568.054h417.854V328.17H96.462v239.884z"/></clipPath><clipPath id="i"><path d="M96.462 328.17h417.849v239.884H96.462V328.17z"/></clipPath><clipPath id="j"><path d="M96.462 569.876h417.854V367.937H96.462v201.939z"/></clipPath></defs><path d="M518.396 718.865c143.619-1.374 208.234-26.433 243.106-44.414 32.97-16.093 62.628-37.202 89.27-68.994 5.335-6.477 11.541-4.085 19.305-.687 13.947 5.998 42.427 20.079 53.467 23.329 22.237 6.599 28.076-13.652 5.752-24.347-14.08-6.771-43.359-21.907-49.921-26.053-5.728-3.52-8.17-5.029-4.526-11.1 4.55-7.568 15.062-33.559 16.019-38.085 2.134-9.69 6.255-13.48 18.95-11.836 17.97 2.428 45.297 7.175 58.066 4.047 11.076-2.809 4.342-13.823-2.576-16.289-6.636-2.453-37.803-10.548-48.977-11.91-10.438-1.349-14.657-5.96-13.983-12.204.761-6.329 4.65-34.393 4.404-44.537-.356-11.468 8.794-10.156 16.534-11.1 7.715-1.018 47.885 1.03 60.2.527 28.199-1.018 15.59-19.796-3.017-22.078-15.283-1.926-52.632-3.765-62.261-3.753-9.015 0-12.818 1.754-12.965-11.567-.478-41.752-22.777-104.516-39.74-136.97-1.828-3.656-2.282-8.979-1.276-13.21 16.08-67.253 5.421-193.21-38.49-215.46-28.174-11.995-115.236 7.384-158.767 30.763-19.883 10.18-30.897 16.006-36.576 19.073-4.023 1.766-8.464 2.11-12.34 1.41-12.29-2.17-40.219-6.255-78.573-6.255-85.222 0-155.247 8.463-188.56 16.411-5.974 1.41-12.659.785-18.522-2.048-43.972-21.048-74.906-34.344-131.476-41.924-35.264-4.808-48.964 13.333-61.512 34.172-31.67 57.784-28.886 126.46-11.088 173.878 4.182 12.99 1.766 12.401-6.354 27.856-19.38 37.238-35.362 89.355-33.117 148.255.319 6.611-8.61 6.807-13.272 7.065-15.994.981-46.34 4.109-59.88 8.108-23.55 6.954-18.853 26.58 2.465 22.053 8.218-1.766 53.895-4.98 61.512-4.452 7.703.454 10.732-2.196 12.499 7.752 2.33 12.474 9.224 40.501 12.351 49.37 2.306 6.66 1.656 7.481-6.108 9.983-7.973 2.6-24.053 7.85-33.902 10.831-15.345 4.575-14.658 22.728 2.735 19.932 12.535-1.987 26.567-4.857 37.827-6.477 9.751-1.484 12.904-.233 17.442 8.685 5.507 10.965 16.988 27.77 24.96 37.582 4.478 5.666 1.19 8.45-5.42 11.394-6.636 3.006-45.31 25.881-55.05 36.859-14.877 16.718 1.804 26.359 15.05 16.056 16.694-12.928 46.402-28.714 57.54-34.124 8.156-3.937 11.284-5.47 18.017.663 23.649 21.318 53.135 38.11 86.167 51.27 68.553 26.678 162.716 41.863 254.61 42.55"/><path d="M636.765 104.43c11.088-5.936 29.106-15.577 41.225-21.501 43.248-21.931 98.947-37.913 130.163-32.7 27.205 6.022 45.322 105.116 25.697 190.02-1.693 4.292-1.718 12.106 1.508 18.042 24.421 45.359 40.367 92.434 41.017 132.592.196 9.776-2.687 10.733-6.366 11.775-9.224 2.87-28.702 5.348-37.926 8.451-14.179 4.76-14.044 17.933-5.458 21.024 9.739 3.557 21.87 0 33.29-1.791 11.43-1.779 16.705-2.551 16.84 5.078.294 12.388-1.815 33.853-4.98 44.966-1.509 5.176-2.22 4.575-7.016 5.286-10.536 1.791-14.83 0-20.987 1.436-6.083 1.435-10.278 7.53-5.102 13.97 4.906 6.17 14.805 6.844 22.225 9.69 6.98 2.588-11.542 35.35-16.595 45.85-4.55 9.615-10.45 6.095-16.559 5.555-8.745-.748-20.594-4.759-25.108 3.926-3.066 5.912-1.41 9.567 3.962 13.872 6.317 5.066 16.02 4.82 11.947 11.701-6.44 11.003-41.397 46.254-106.147 69.964-86.314 29.278-216.465 36.282-347.082 11.113-74.858-15.038-129.55-39.14-158.828-63.782-6.918-5.887-.074-9.26 5.838-11.652 5.826-2.478 11.75-5.606 14.24-10.549 2.49-5.029-1.079-13.271-10.683-12.805-5.63.184-19.478 4.955-26.592 7.654-8.66 3.311-10.193 1.557-16.387-4.625-11.26-11.272-20.128-29.413-22.593-34.527-2.38-4.82-1.987-6.881 6.304-8.918 8.525-2.183 19.012-4.783 22.925-9.972 3.643-4.71-1.901-13.332-13.873-12.032-11.493 1.25-20.312 1.594-24.408 1.472-2.466-.037-4.269-2.135-6.109-6.354-5.924-13.504-12.155-40.133-12.547-46.07-.467-7.138 3.508-6.304 12.118-6.329 8.598-.11 24.605 1.68 33.89 0 7.63-1.386 9.396-12.008 4.293-16.62-5.446-4.845-27.88-7.323-43.102-8.157-12.535-.674-11.161-4.6-10.928-21.575.723-42.672 18.239-104.418 45.604-147.924 8.193-12.916 17.92-24.605 18.705-32.872.956-10.757-10.107-17.626-19.368-10.733-5.544 4.158-6.341 6.832-9.714-1.03-21.392-59.783 5.58-127.71 27.046-140.859 23.537-14.572 96.972 12.253 134.75 35.3 17.798 11.334 22.802 10.365 38.784 5.643 23.072-6.881 104.259-16.08 186.243-16.08 44.573 0 66.013 3.005 76.44 5.813 7.518 1.362 11.48 2.098 19.404-.735" fill="#fff"/><path d="M269.585 481.625c0 15.578 7.985 33.216 29.18 33.216 21.159 0 29.5-22.14 29.5-36.92 0-14.78-4.245-39.643-28.518-39.643-24.311 0-30.162 26.04-30.162 43.347M672.292 475.767c0 23.182 9.923 39.079 31.07 39.079 16.705 0 26.996-18.644 26.996-37.533 0-26.789-11.285-38.404-29.156-38.404-21.55 0-28.91 23.636-28.91 36.858M459.392 541.312c0 24.261 20.385 35.718 49.492 35.718 29.18 0 42.758-17.479 42.758-34.21 0-15.209-16.093-34.564-46.033-34.564-31.646 0-46.217 17.27-46.217 33.056"/><path d="M479.61 543.205c0 9.726 11.481 16.706 26.813 16.706 14.56 0 23.636-5.446 23.636-15.713 0-11.1-11.26-17.54-25.61-17.54-14.351 0-24.838 6.072-24.838 16.547" fill="#ffc400"/><path d="M775.16 355.937c-41.923-5.286-62.836-42.464-71.41-56.226-4.673-7.396-3.36-9.653-14.878-9.923-18.57-.527-52.927-19.33-62.813-38.097-7.065-13.357-10.426-7.874-29.928-1.472-32.124 10.524-61.463 9.31-85.467-4.575-51.614-31.805-39.324-103.326-29.377-130.09 21.06-59.868 49.738-97.365 87.172-111.826 53.736-16.387 90.963 25.366 105.228 45.285 11.272 17.062 19.49 35.374 25.844 54.251 4.145 9.899 1.729 15.283 11.014 17.601 22.41 5.765 34.86 12.88 42.893 20.067 6.943 6.12 8.071 7.212 20.435 3.422 9.886-3.03 51.074-10.99 70.405-6.243 16.019 2.208 32.332 11.48 44.598 23.403 15.553 14.155 37.852 57.968 4.538 117.775-30.48 49.259-77.139 81.604-118.253 76.648"/><path d="M500.477 177.33c4.342 38.956 31.768 60.016 80.512 49.995 12.008-2.502 24.556-6.5 28.702-10.658 4.243-4.097 3.998-11.003 2.158-14.032-2.845-4.6-37.005-13.444-32.197-52.522 3.741-30.762 32.197-39.79 40.66-40.575 21.294-1.913 37.227 12.572 40.526 15.283 3.386 2.723 13.321-2.735 11.69-11.137-3.925-20.52-22.63-45.886-32.676-58.912-6.562-8.513-28.285-30.456-58.839-23.734-46.057 13.823-83.86 93.243-80.536 146.292" fill="#f50026"/><path d="M640.095 142.15c-5.41 3.729-18.644 24.163-20.705 32.86-1.46 6.12-17.724-5.655-16.522-17.933.81-7.923 2.16-15.86 12.266-21.023 12.413-6.403 27.806 4.048 24.96 6.096M753.887 208.473c-3.471 26.236-18.803 42.022-32.222 49.541-37.3 20.803-88.202-11.162-81.665-58.937 3.165-23.341 15.713-41.58 36-48.326 50.032-16.645 83.112 25.561 77.887 57.722M878.987 193.232c15.112 28.407-4.121 69.583-23.17 91.318-34.258 39.029-62.285 50.277-91.146 40.795-18.926-6.255-30.91-23.23-36.196-33.792-2.686-5.532.11-7.077 7.347-11.223 5.434-3.152 9.224-7.237 14.572-4.857 14.633 6.452 37.631 5.299 49.615-5.85 9.837-9.31 15.92-29.475 9.505-43.826-6.88-15.48-18.472-22.458-25.28-25.856-5.789-2.895-5.286-8.28-6.107-13.811-1.104-8.108-.663-10.843 3.495-13.026 6.857-3.643 22.336-6.98 33.216-7.654 10.769-.675 48.437-1.62 64.15 27.782" fill="#f50026"/><g fill="#f50026"><path d="M780.766 256.53c-7.09 3.655-19.98 3.263-15.982-3.238 4.22-6.71 10.156-18.632 12.364-25.133 1.803-5.127 7.997-.024 11.088 6.489 4.49 9.457-.282 18.165-7.47 21.882"/></g></svg>