<?xml version="1.0" encoding="UTF-8"?>
<svg xmlns="http://www.w3.org/2000/svg" xmlns:xlink="http://www.w3.org/1999/xlink" version="1.1" width="690" height="451.00000010058284">
  <defs>
    <clipPath id="clip1">
      <path d="M0 0L676 0L676 451.00000010058284L0 451.00000010058284L0 0"/>
    </clipPath>
    <clipPath id="clip2">
      <path d="M64.00000000000054 8.0000000000000018L676 8.0000000000000018L676 431.00000010058284L64.00000000000054 431.00000010058284L64.00000000000054 8.0000000000000018"/>
    </clipPath>
<style type="text/css">
	#trendline path {
	fill: none;
	stroke-width: 2px;
	stroke: #000000;	
	}
	text {
	font-family: Arial;
	font-size: 12px;
	}

</style>
<marker
   refX="0"
   refY="0"
   orient="auto"
   id="DotM"
   style="overflow:visible">
  <circle cx="0" cy="0" r="2" id="circle" fill="red" />
</marker>
  </defs>
   <g id="axis">
    <path d="M64.000000000000156 431.00000010058284L675.99999999999955 431.00000010058284" fill="none" stroke-width="1" stroke="#000000"/>
    <path d="M64.000000000000313 435.50000010058284L64.000000000000313 431.00000010058284" fill="none" stroke-width="1" stroke="#000000"/>
    <text x="64.000000000000313" y="448.50000010058284" text-anchor="middle" transform="rotate(0,64.000000000000313,443.50000010058284)" fill="#000000" font-family="sans">1900</text>
    <path d="M122.8461538461541 435.50000010058284L122.8461538461541 431.00000010058284" fill="none" stroke-width="1" stroke="#000000"/>
    <text x="122.8461538461541" y="448.50000010058284" text-anchor="middle" transform="rotate(0,122.8461538461541,443.50000010058284)" fill="#000000" font-family="sans">1910</text>
    <path d="M181.69230769230791 435.50000010058284L181.69230769230791 431.00000010058284" fill="none" stroke-width="1" stroke="#000000"/>
    <text x="181.69230769230791" y="448.50000010058284" text-anchor="middle" transform="rotate(0,181.69230769230791,443.50000010058284)" fill="#000000" font-family="sans">1920</text>
    <path d="M240.53846153846166 435.50000010058284L240.53846153846166 431.00000010058284" fill="none" stroke-width="1" stroke="#000000"/>
    <text x="240.53846153846166" y="448.50000010058284" text-anchor="middle" transform="rotate(0,240.53846153846166,443.50000010058284)" fill="#000000" font-family="sans">1930</text>
    <path d="M299.38461538461547 435.50000010058284L299.38461538461547 431.00000010058284" fill="none" stroke-width="1" stroke="#000000"/>
    <text x="299.38461538461547" y="448.50000010058284" text-anchor="middle" transform="rotate(0,299.38461538461547,443.50000010058284)" fill="#000000" font-family="sans">1940</text>
    <path d="M358.23076923076928 435.50000010058284L358.23076923076928 431.00000010058284" fill="none" stroke-width="1" stroke="#000000"/>
    <text x="358.23076923076928" y="448.50000010058284" text-anchor="middle" transform="rotate(0,358.23076923076928,443.50000010058284)" fill="#000000" font-family="sans">1950</text>
    <path d="M417.07692307692304 435.50000010058284L417.07692307692304 431.00000010058284" fill="none" stroke-width="1" stroke="#000000"/>
    <text x="417.07692307692304" y="448.50000010058284" text-anchor="middle" transform="rotate(0,417.07692307692304,443.50000010058284)" fill="#000000" font-family="sans">1960</text>
    <path d="M475.92307692307685 435.50000010058284L475.92307692307685 431.00000010058284" fill="none" stroke-width="1" stroke="#000000"/>
    <text x="475.92307692307685" y="448.50000010058284" text-anchor="middle" transform="rotate(0,475.92307692307685,443.50000010058284)" fill="#000000" font-family="sans">1970</text>
    <path d="M534.7692307692306 435.50000010058284L534.7692307692306 431.00000010058284" fill="none" stroke-width="1" stroke="#000000"/>
    <text x="534.7692307692306" y="448.50000010058284" text-anchor="middle" transform="rotate(0,534.7692307692306,443.50000010058284)" fill="#000000" font-family="sans">1980</text>
    <path d="M593.61538461538441 435.50000010058284L593.61538461538441 431.00000010058284" fill="none" stroke-width="1" stroke="#000000"/>
    <text x="593.61538461538441" y="448.50000010058284" text-anchor="middle" transform="rotate(0,593.61538461538441,443.50000010058284)" fill="#000000" font-family="sans">1990</text>
    <path d="M652.46153846153811 435.50000010058284L652.46153846153811 431.00000010058284" fill="none" stroke-width="1" stroke="#000000"/>
    <text x="652.46153846153811" y="448.50000010058284" text-anchor="middle" transform="rotate(0,652.46153846153811,443.50000010058284)" fill="#000000" font-family="sans">2000</text>
    <path d="M64.000000000000156 431.00000010058284L64.000000000000156 8" fill="none" stroke-width="1" stroke="#000000"/>
    <path d="M59.500000000000156 431.00000010058284L64.000000000000156 431.00000010058284" fill="none" stroke-width="1" stroke="#000000"/>
    <text x="51.500000000000156" y="436.00000010058284" text-anchor="middle" transform="rotate(0,51.500000000000156,431.00000010058284)" fill="#000000" font-family="sans">0</text>
    <path d="M61.500000000000156 416.90000009723008L64.000000000000156 416.90000009723008" fill="none" stroke-width="1" stroke="#000000"/>
    <path d="M61.500000000000156 402.80000009387732L64.000000000000156 402.80000009387732" fill="none" stroke-width="1" stroke="#000000"/>
    <path d="M61.500000000000156 388.70000009052455L64.000000000000156 388.70000009052455" fill="none" stroke-width="1" stroke="#000000"/>
    <path d="M61.500000000000156 374.60000008717179L64.000000000000156 374.60000008717179" fill="none" stroke-width="1" stroke="#000000"/>
    <path d="M59.500000000000156 360.50000008381903L64.000000000000156 360.50000008381903" fill="none" stroke-width="1" stroke="#000000"/>
    <text x="44.000000000000163" y="365.50000008381903" text-anchor="middle" transform="rotate(0,44.000000000000163,360.50000008381903)" fill="#000000" font-family="sans">500</text>
    <path d="M61.500000000000156 346.40000008046627L64.000000000000156 346.40000008046627" fill="none" stroke-width="1" stroke="#000000"/>
    <path d="M61.500000000000156 332.30000007711351L64.000000000000156 332.30000007711351" fill="none" stroke-width="1" stroke="#000000"/>
    <path d="M61.500000000000156 318.20000007376075L64.000000000000156 318.20000007376075" fill="none" stroke-width="1" stroke="#000000"/>
    <path d="M61.500000000000171 304.10000007040799L64.000000000000171 304.10000007040799" fill="none" stroke-width="1" stroke="#000000"/>
    <path d="M59.500000000000171 290.00000006705523L64.000000000000171 290.00000006705523" fill="none" stroke-width="1" stroke="#000000"/>
    <text x="39.500000000000163" y="295.00000006705523" text-anchor="middle" transform="rotate(0,39.500000000000163,290.00000006705523)" fill="#000000" font-family="sans">1000</text>
    <path d="M61.500000000000171 275.90000006370246L64.000000000000171 275.90000006370246" fill="none" stroke-width="1" stroke="#000000"/>
    <path d="M61.500000000000171 261.8000000603497L64.000000000000171 261.8000000603497" fill="none" stroke-width="1" stroke="#000000"/>
    <path d="M61.500000000000171 247.70000005699694L64.000000000000171 247.70000005699694" fill="none" stroke-width="1" stroke="#000000"/>
    <path d="M61.500000000000171 233.60000005364418L64.000000000000171 233.60000005364418" fill="none" stroke-width="1" stroke="#000000"/>
    <path d="M59.500000000000171 219.50000005029142L64.000000000000171 219.50000005029142" fill="none" stroke-width="1" stroke="#000000"/>
    <text x="40.000000000000171" y="224.50000005029142" text-anchor="middle" transform="rotate(0,40.000000000000171,219.50000005029142)" fill="#000000" font-family="sans">1500</text>
    <path d="M61.500000000000171 205.40000004693866L64.000000000000171 205.40000004693866" fill="none" stroke-width="1" stroke="#000000"/>
    <path d="M61.500000000000171 191.3000000435859L64.000000000000171 191.3000000435859" fill="none" stroke-width="1" stroke="#000000"/>
    <path d="M61.500000000000171 177.20000004023314L64.000000000000171 177.20000004023314" fill="none" stroke-width="1" stroke="#000000"/>
    <path d="M61.500000000000171 163.10000003688037L64.000000000000171 163.10000003688037" fill="none" stroke-width="1" stroke="#000000"/>
    <path d="M59.500000000000171 149.00000003352761L64.000000000000171 149.00000003352761" fill="none" stroke-width="1" stroke="#000000"/>
    <text x="39.500000000000171" y="154.00000003352761" text-anchor="middle" transform="rotate(0,39.500000000000171,149.00000003352761)" fill="#000000" font-family="sans">2000</text>
    <path d="M61.500000000000171 134.90000003017485L64.000000000000171 134.90000003017485" fill="none" stroke-width="1" stroke="#000000"/>
    <path d="M61.500000000000171 120.80000002682209L64.000000000000171 120.80000002682209" fill="none" stroke-width="1" stroke="#000000"/>
    <path d="M61.500000000000171 106.70000002346933L64.000000000000171 106.70000002346933" fill="none" stroke-width="1" stroke="#000000"/>
    <path d="M61.500000000000171 92.600000020116568L64.000000000000171 92.600000020116568" fill="none" stroke-width="1" stroke="#000000"/>
    <path d="M59.500000000000185 78.500000016763806L64.000000000000185 78.500000016763806" fill="none" stroke-width="1" stroke="#000000"/>
    <text x="40.000000000000178" y="83.500000016763806" text-anchor="middle" transform="rotate(0,40.000000000000178,78.500000016763806)" fill="#000000" font-family="sans">2500</text>
    <path d="M61.500000000000185 64.400000013411045L64.000000000000185 64.400000013411045" fill="none" stroke-width="1" stroke="#000000"/>
    <path d="M61.500000000000185 50.300000010058284L64.000000000000185 50.300000010058284" fill="none" stroke-width="1" stroke="#000000"/>
    <path d="M61.500000000000185 36.200000006705523L64.000000000000185 36.200000006705523" fill="none" stroke-width="1" stroke="#000000"/>
    <path d="M61.500000000000185 22.100000003352761L64.000000000000185 22.100000003352761" fill="none" stroke-width="1" stroke="#000000"/>
    <path d="M59.500000000000185 8L64.000000000000185 8" fill="none" stroke-width="1" stroke="#000000"/>
    <text x="39.500000000000185" y="12.999999999999998" text-anchor="middle" transform="rotate(0,39.500000000000185,7.9999999999999982)" fill="#000000" font-family="sans">3000</text>
    <text x="8.0000000000000053" y="224.50000005029142" text-anchor="middle" transform="rotate(-90,8.0000000000000053,219.50000005029142)" fill="#000000" font-family="sans">World production (tons/year)</text>
	</g>
    <g id="trendline">
      <path d="M64.000000000000156 376.5740000876412L69.884615384615543 375.30500008733941L75.769230769230916 367.40900008546191L81.653846153846303 361.06400008395315L87.538461538461675 356.83400008294734L93.423076923077048 349.92500008130446L99.307692307692434 345.27200008019804L105.19230769230781 343.15700007969514L111.07692307692319 336.81200007818637L116.96153846153857 334.13300007754935L122.84615384615395 333.8510000774823L128.73076923076934 332.44100007714701L134.6153846153847 331.59500007694589L140.50000000000009 333.14600007731468L146.38461538461547 337.51700007835404L152.26923076923083 331.73600007697939L158.15384615384622 334.41500007761641L164.0384615384616 342.02900007942691L169.92307692307699 349.5020000812039L175.80769230769235 353.45000008214265L181.69230769230774 359.51300008358436L187.57692307692312 360.78200008388609L193.46153846153848 363.17900008445605L199.34615384615387 352.88600008200854L205.23076923076925 347.5280000807345L211.11538461538464 347.669000080768L217 346.11800008039921L222.88461538461539 346.82300008056683L228.76923076923077 345.97700008036571L234.65384615384613 345.13100008016454L240.53846153846152 339.63200007885695L246.42307692307691 333.00500007728112L252.30769230769229 324.68600007530301L258.19230769230768 319.18700007399542L264.07692307692304 312.4190000723861L269.9615384615384 300.7160000696033L275.84615384615381 285.77000006604942L281.73076923076917 275.90000006370246L287.61538461538453 266.03000006135551L293.49999999999994 257.5700000593439L299.3846153846153 246.29000005666165L305.26923076923072 278.72000006437304L311.15384615384608 273.08000006303189L317.03846153846143 304.6640000705421L322.92307692307685 316.3670000733249L328.80769230769221 323.55800007503478L334.69230769230757 309.74000007174908L340.57692307692298 304.10000007040799L346.46153846153834 299.58800006933512L352.3461538461537 295.0760000682622L358.23076923076911 307.06100007111206L364.11538461538447 306.49700007097795L369.99999999999989 308.61200007148085L375.88461538461524 309.17600007161496L381.7692307692306 294.9350000682287L387.65384615384602 297.47300006883216L393.53846153846138 293.10200006779286L399.42307692307674 287.18000006638465L405.30769230769215 282.95000006537884L411.19230769230751 271.67000006269666L417.07692307692287 263.21000006068499L422.96153846153828 257.5700000593439L428.84615384615364 249.11000005733223L434.730769230769 242.06000005565585L440.61538461538441 235.01000005397947L446.49999999999977 227.96000005230309L452.38461538461519 226.5500000519678L458.26923076923055 230.78000005297363L464.1538461538459 227.96000005230309L470.03846153846132 226.5500000519678L475.92307692307668 222.32000005096197L481.80769230769204 226.5500000519678L487.69230769230745 235.01000005397947L493.57692307692281 240.65000005532056L499.46153846153817 254.75000005867332L505.34615384615358 261.8000000603497L511.23076923076894 260.39000006001442L517.1153846153843 260.39000006001442L522.99999999999966 260.39000006001442L528.88461538461513 260.39000006001442L534.76923076923049 258.98000005967913L540.65384615384585 250.52000005766749L546.53846153846121 242.06000005565585L552.42307692307656 233.60000005364418L558.30769230769192 225.14000005163251L564.19230769230739 215.27000004928558L570.07692307692275 203.99000004660337L575.96153846153811 196.94000004492699L581.84615384615347 167.33000003788621L587.73076923076883 147.59000003319233L593.6153846153843 123.62000002749265L599.49999999999966 126.4400000281632L605.38461538461502 112.34000002481044L611.26923076923038 109.52000002413989L617.15384615384573 112.34000002481044L623.03846153846109 116.57000002581627L628.92307692307656 108.1100000238046L634.80769230769192 85.550000018440187L640.69230769230728 78.500000016763806L646.57692307692264 68.630000014416879L652.461538461538 65.810000013746318L658.34615384615347 64.400000013411045L664.23076923076883 71.450000015087426L670.11538461538419 71.450000015087426L675.99999999999955 88.370000019110748"/>
    </g>
</svg>
